# Blender v2.75 (sub 0) OBJ File: ''
# www.blender.org
mtllib grass.mtl
o Mesh2_Detailed_2
v 4.933383 1.527174 -3.708451
v 4.752574 -0.117548 -3.870408
v 0.603325 -0.042902 1.405614
v 0.784134 1.601820 1.567571
v 3.579331 1.491972 -4.675725
v 3.972364 -0.124599 -4.427527
v 0.955896 -0.049953 -0.239989
v 0.562863 1.566618 -0.488187
v 1.288336 1.646754 6.691301
v 1.507941 0.002583 6.596542
v -0.567826 -0.080624 1.415729
v -0.787431 1.563547 1.510487
v 6.203919 1.569243 1.252552
v 6.216795 -0.076806 1.004702
v -1.463281 -0.075486 0.647355
v -1.476157 1.570562 0.895205
v 2.266856 1.484643 -5.720685
v 2.268922 -0.164923 -5.752172
v -0.273972 -0.083134 -0.820516
v -0.276038 1.566432 -0.789032
v -3.132773 1.512050 -5.594325
v -0.585383 1.587027 -1.219061
v -0.583317 -0.062539 -1.250547
v -3.130708 -0.137516 -5.625810
v -4.016010 1.510941 -1.788587
v -3.983641 -0.115290 -2.282013
v 5.917853 -0.115290 -1.826981
v 5.885484 1.510941 -1.333555
v 1.757280 1.622905 3.139028
v 1.551842 0.008729 3.526153
v -4.736893 -0.024104 0.673155
v -4.531456 1.590070 0.286029
v 5.304233 1.572663 -2.610789
v -5.737113 1.613398 2.000307
v -5.646302 -0.032328 1.769757
v 5.214895 -0.073062 -2.841339
v -0.550512 1.531463 -2.011298
v -0.353059 -0.082962 -1.865030
v -6.719795 -0.042228 0.744889
v -6.917249 1.572198 0.598621
v -4.498853 1.570647 1.620159
v -4.984210 -0.048917 1.588298
v -5.017233 -0.137812 -5.021180
v -4.531876 1.481752 -4.989316
v -5.930659 1.592495 2.184729
v -5.700651 -0.050827 2.153756
v -5.733675 -0.139723 -4.455722
v -5.963683 1.503599 -4.424747
v 3.859104 1.592243 5.340692
v -6.579813 1.547565 -2.947979
v -6.451392 -0.098087 -3.158990
v 3.987525 -0.053411 5.129680
v 0.140158 1.550134 -0.578258
v -0.127992 -0.064442 -0.225173
v -5.912260 -0.109119 -3.925403
v -5.644111 1.505457 -4.278488
v -1.137637 1.590209 -0.455483
v -1.135572 -0.059357 -0.486967
v -6.188908 -0.104034 -3.532138
v -6.190973 1.545532 -3.500654
v 6.418482 1.604854 2.156277
v 0.438690 1.667092 6.820363
v 0.554729 0.021875 6.647471
v 6.534521 -0.040364 1.983388
v 5.122196 1.569228 1.167666
v 5.442340 -0.046284 1.489852
v 0.176882 0.015954 5.770447
v -0.143262 1.631466 5.448264
v 2.092902 1.652594 6.751133
v 2.094968 0.003027 6.719648
v 0.019202 -0.080180 0.209140
v 0.017136 1.569386 0.240626
v 5.325439 1.628592 3.642606
v 5.392467 -0.017382 3.735929
v -1.460864 -0.037408 1.919602
v -1.527890 1.608565 1.826280
v 6.224198 1.584121 2.346892
v 0.220661 1.564092 0.752055
v 0.083784 -0.049802 1.164479
v 6.087321 -0.029773 2.759316
v 3.568292 1.509089 -5.142104
v 6.018652 1.590347 1.774513
v 5.807397 -0.051581 1.818226
v 3.357037 -0.132838 -5.098392
v 2.043035 1.501020 -4.104036
v 2.501165 -0.121526 -4.295591
v 5.289505 -0.040269 2.748785
v 4.831375 1.582277 2.940339
v 6.534379 1.565310 0.554953
v -0.680000 1.566629 0.197606
v -0.677935 -0.082938 0.166122
v 6.536445 -0.084257 0.523468
v -4.395546 1.511051 -5.197276
v 3.163995 1.511051 -5.063751
v 3.151866 -0.129153 -4.878856
v -4.407676 -0.129153 -5.012382
v -4.808398 1.510943 -3.763990
v -4.776028 -0.115288 -4.257416
v 2.952703 -0.115288 -3.802384
v 2.920333 1.510943 -3.308958
v 1.400659 1.451448 -6.079871
v -1.747312 1.533237 -0.207244
v -1.310749 -0.084267 -0.025552
v 1.837222 -0.166056 -5.898180
v 2.802412 1.486188 -5.143776
v 2.601244 -0.158097 -5.274631
v -0.546727 -0.076308 0.597997
v -0.345559 1.567977 0.728849
v -2.469029 1.501447 -5.860940
v -2.666093 -0.140100 -5.788046
v 0.716917 -0.065124 -0.238560
v 0.913981 1.576424 -0.311454
v 0.420594 1.670264 6.630980
v -5.868141 1.637429 3.777982
v -5.769049 -0.008414 3.551051
v 0.519686 0.024421 6.404049
v 0.747045 1.622903 4.870217
v 0.541608 0.008729 5.257342
v -5.747127 -0.024104 2.404344
v -5.541690 1.590070 2.017219
v -5.741391 1.629097 4.219455
v -5.739326 -0.020470 4.187969
v -0.215330 -0.083480 -0.219138
v -0.217395 1.566086 -0.187654
v -4.958499 1.607933 4.589378
v -5.048989 -0.016467 4.737742
v -0.309587 -0.079478 0.396096
v -0.219099 1.544922 0.247731
v -1.602653 1.670293 6.500388
v -2.510290 1.582855 -0.058064
v -2.282231 -0.060832 -0.116332
v -1.374595 0.026605 6.442118
v -0.079502 1.642749 6.300894
v -0.410358 0.023966 6.327390
v -1.317995 -0.063471 0.092740
v -0.987138 1.555312 0.066243
v -2.639063 1.570647 2.271623
v -3.124421 -0.048917 2.239761
v -3.157444 -0.137812 -4.369716
v -2.672086 1.481752 -4.337852
v 5.747364 1.569228 -1.812423
v 6.067507 -0.046284 -1.490236
v -2.653663 0.015954 6.015216
v -2.973807 1.631466 5.693031
v -0.313656 1.501020 -5.882576
v -0.065851 -0.121526 -6.074130
v 4.023421 -0.040270 4.971236
v 3.775616 1.582276 5.162789
vt 1.385355 0.006980
vt 1.385355 1.006980
vt -0.614645 1.006980
vt 1.330667 0.006980
vt 1.330667 1.006980
vt -0.669333 1.006980
vt 1.549417 1.006980
vt -0.450583 1.006980
vt -0.450583 0.006980
vt 1.549417 0.006980
vt -0.614645 0.006980
vt -0.669333 0.006980
vt 1.756123 0.006980
vt 1.756123 1.006980
vt -0.243877 1.006980
vt -0.243877 0.006980
vt 2.218750 0.000000
vt 2.218750 1.000000
vt 0.218750 1.000000
vt 1.992358 0.006980
vt 1.992358 1.006980
vt -0.007642 1.006980
vt 0.218750 0.000000
vt -0.007642 0.006980
vn -0.776600 0.145700 -0.612800
vn -0.782200 -0.275900 -0.558600
vn 0.917800 0.143900 -0.370000
vn 0.046000 0.149100 -0.987800
vn -0.888700 0.007600 -0.458400
vn 0.864100 0.010700 -0.503300
vn -0.043900 -0.290900 0.955800
vn 0.399900 -0.261600 -0.878400
vn 0.385700 -0.144900 0.911200
vn 0.382800 -0.107400 0.917600
vn 0.383100 -0.110900 0.917000
vn -0.376800 -0.129200 -0.917200
vn 0.957900 -0.287100 -0.000900
vn 0.990300 0.138700 -0.006800
vn -0.614700 -0.147300 0.774900
vn 0.521200 -0.264000 -0.811600
vn 0.516000 0.017000 -0.856400
vn 0.614300 -0.039500 0.788100
vn -0.609400 -0.269500 -0.745700
vn 0.952700 0.007000 -0.303800
vn 0.256100 -0.044300 -0.965600
vn -0.248800 0.259600 0.933100
vn 0.935200 -0.129100 -0.329800
vn -0.888000 -0.292600 0.354800
vn -0.049500 -0.019100 0.998600
vn 0.017500 -0.112100 -0.993500
vn -0.056200 -0.290900 0.955100
vn 0.847900 0.279500 0.450600
vn -0.871300 0.143900 -0.469100
vn -0.847900 0.124700 0.515200
vn -0.407900 -0.148800 0.900800
vn 0.623500 -0.014100 0.781700
vn 0.675400 0.029700 0.736900
vn 0.675400 0.029700 0.736800
vn -0.980400 -0.140900 0.137600
vn 0.969900 -0.200500 -0.138400
vn -0.629200 -0.270000 -0.728800
vn -0.921800 -0.181200 0.342600
vn 0.386000 -0.148500 0.910500
usemtl Grass
s 1
f 1/1/1 2/2/1 3/3/1
f 5/4/2 6/5/2 7/6/2
f 10/7/3 11/8/3 12/9/3
f 13/1/4 14/2/4 15/3/4
f 17/1/5 18/2/5 19/3/5
f 21/10/6 22/9/6 23/8/6
f 26/7/7 27/8/7 28/9/7
f 30/7/8 31/8/8 32/9/8
f 33/10/9 34/9/10 35/8/11
f 37/10/12 38/7/12 39/8/12
f 42/7/13 43/8/13 44/9/13
f 46/2/14 47/3/14 48/11/14
f 50/9/15 51/8/15 52/7/15
f 54/7/16 55/8/16 56/9/16
f 58/7/17 59/8/17 60/9/17
f 61/4/18 62/12/18 63/6/18
f 65/10/19 66/7/19 67/8/19
f 70/2/20 71/3/20 72/11/20
f 73/13/21 74/14/21 75/15/21
f 78/9/22 79/8/22 80/7/22
f 81/4/23 82/12/23 83/6/23
f 85/10/24 86/7/24 87/8/24
f 89/13/25 90/16/25 91/15/25
f 93/4/26 94/12/26 95/6/26
f 98/7/27 99/8/27 100/9/27
f 101/10/28 102/9/28 103/8/28
f 105/17/29 106/18/29 107/19/29
f 109/10/30 110/7/30 111/8/30
f 114/11/31 115/3/31 116/2/31
f 118/7/8 119/8/8 120/9/8
f 122/7/32 123/8/32 124/9/32
f 125/20/33 126/21/33 127/22/34
f 130/11/35 131/3/35 132/2/35
f 134/7/36 135/8/36 136/9/36
f 138/7/13 139/8/13 140/9/13
f 141/10/37 142/7/37 143/8/37
f 145/10/38 146/7/38 147/8/38
f 4/11/1 1/1/1 3/3/1
f 8/12/2 5/4/2 7/6/2
f 9/10/3 10/7/3 12/9/3
f 16/11/4 13/1/4 15/3/4
f 20/11/5 17/1/5 19/3/5
f 24/7/6 21/10/6 23/8/6
f 25/10/7 26/7/7 28/9/7
f 29/10/8 30/7/8 32/9/8
f 36/7/39 33/10/9 35/8/11
f 40/9/12 37/10/12 39/8/12
f 41/10/13 42/7/13 44/9/13
f 45/1/14 46/2/14 48/11/14
f 49/10/15 50/9/15 52/7/15
f 53/10/16 54/7/16 56/9/16
f 57/10/17 58/7/17 60/9/17
f 64/5/18 61/4/18 63/6/18
f 68/9/19 65/10/19 67/8/19
f 69/1/20 70/2/20 72/11/20
f 76/16/21 73/13/21 75/15/21
f 77/10/22 78/9/22 80/7/22
f 84/5/23 81/4/23 83/6/23
f 88/9/24 85/10/24 87/8/24
f 92/14/25 89/13/25 91/15/25
f 96/5/26 93/4/26 95/6/26
f 97/10/27 98/7/27 100/9/27
f 104/7/28 101/10/28 103/8/28
f 108/23/29 105/17/29 107/19/29
f 112/9/30 109/10/30 111/8/30
f 113/1/31 114/11/31 116/2/31
f 117/10/8 118/7/8 120/9/8
f 121/10/32 122/7/32 124/9/32
f 128/24/34 125/20/33 127/22/34
f 129/1/35 130/11/35 132/2/35
f 133/10/36 134/7/36 136/9/36
f 137/10/13 138/7/13 140/9/13
f 144/9/37 141/10/37 143/8/37
f 148/9/38 145/10/38 147/8/38
o Mesh1_Simple_1
v -0.391123 1.573575 -1.035729
v -0.389058 -0.075991 -1.067213
v -6.755794 -0.035257 1.542706
v -6.757859 1.614310 1.574190
v -5.178596 1.601372 2.466878
v -5.176530 -0.048195 2.435393
v -5.209553 -0.137091 -4.174085
v -5.211618 1.512476 -4.142600
v 5.049141 1.609925 2.462488
v 5.051207 -0.039642 2.431004
v -0.214251 0.022597 6.711599
v -0.216317 1.672163 6.743085
v 2.972243 1.618417 6.433486
v 2.796434 0.000668 6.538003
v -1.346374 -0.082538 -5.883989
v -1.170565 1.535210 -5.988506
v 5.943022 1.625576 3.244823
v 5.945087 -0.023992 3.213339
v -1.558995 -0.044018 1.287706
v -1.561061 1.605548 1.319190
v 3.133391 1.527977 -4.090058
v 5.845514 1.609233 2.641500
v 5.847579 -0.040332 2.610015
v 3.135457 -0.121589 -4.121544
v 6.517906 1.524132 -0.341830
v 6.496810 -0.089603 0.090023
v -6.416769 -0.088284 -0.621793
v -6.395674 1.525451 -1.053647
v 4.370653 1.528009 -4.110174
v -3.642332 1.602655 5.219985
v -3.640266 -0.046912 5.188500
v 4.372718 -0.121557 -4.141659
v -4.572831 1.527227 -4.413097
v -4.570765 -0.122339 -4.444583
v 3.248865 -0.122339 -4.273544
v 3.246800 1.527227 -4.242059
v -3.943441 1.489749 -5.334466
v -3.756436 -0.133609 -5.588414
v -0.773736 -0.058633 -0.323143
v -0.960743 1.564726 -0.069195
v 0.137193 1.662731 5.622407
v -6.151541 1.629897 2.769409
v -6.149477 -0.019669 2.737925
v 0.139259 0.013164 5.590923
v -6.142792 1.613871 3.759749
v -5.989861 -0.027189 3.891829
v -1.343004 -0.090200 0.088249
v -1.495934 1.550861 -0.043830
v -0.907207 1.674311 6.417737
v -0.905142 0.024744 6.386251
v -1.812779 -0.062693 -0.172198
v -1.814844 1.586874 -0.140714
v -4.016010 1.510942 -2.739328
v -3.983641 -0.115288 -3.232754
v 2.952703 -0.115290 -2.777722
v 2.920333 1.510941 -2.284296
v -3.483702 1.570647 2.271623
v -3.969059 -0.048917 2.239761
v -4.002082 -0.137812 -4.369716
v -3.516725 1.481752 -4.337852
v 1.235276 1.622903 4.109933
v 1.029838 0.008729 4.497058
v -5.258897 -0.024104 1.644061
v -5.053460 1.590070 1.256935
v 4.518235 1.569228 0.340943
v 4.838380 -0.046284 0.663129
v -0.427078 0.015954 4.943724
v -0.747222 1.631466 4.621541
v 1.197237 1.501020 -3.697910
v 1.655367 -0.121526 -3.889463
v 4.105727 -0.040269 2.310867
v 3.647597 1.582277 2.502420
vt 1.549417 0.006980
vt 1.549417 1.006980
vt -0.450583 1.006980
vt -0.450583 0.006980
vt 1.385355 0.006980
vt 1.385355 1.006980
vt -0.614645 1.006980
vt 1.330667 1.006980
vt -0.669333 1.006980
vt -0.669333 0.006980
vt -0.243877 0.006980
vt -0.243877 1.006980
vt 1.756123 1.006980
vt -0.614645 0.006980
vt 1.330667 0.006980
vt 1.756123 0.006980
vn -0.379100 0.017200 -0.925200
vn 1.000000 0.001300 -0.005000
vn -0.630600 0.014000 -0.775900
vn 0.941700 -0.122600 -0.313300
vn 0.248500 0.018800 -0.968500
vn 0.927500 0.008300 -0.373800
vn 0.053100 -0.258800 -0.964500
vn 0.758500 -0.011500 0.651500
vn -0.021900 -0.019100 0.999600
vn -0.855600 -0.174800 0.487200
vn -0.413000 -0.017900 0.910600
vn 0.629800 0.120500 0.767400
vn 0.990500 0.003900 -0.137100
vn -0.062600 -0.290900 0.954700
vn 0.957900 -0.287100 -0.000900
vn 0.399900 -0.261600 -0.878400
vn -0.609400 -0.269500 -0.745700
vn -0.888000 -0.292600 0.354800
usemtl Grass1
s 1
f 149/25/40 150/26/40 151/27/40
f 154/26/41 155/27/41 156/28/41
f 157/29/42 158/30/42 159/31/42
f 161/25/43 162/26/43 163/27/43
f 166/32/44 167/33/44 168/34/44
f 169/25/45 170/28/45 171/27/45
f 173/25/46 174/26/46 175/27/46
f 177/25/47 178/28/47 179/27/47
f 182/26/48 183/27/48 184/28/48
f 185/29/49 186/30/49 187/31/49
f 190/35/50 191/36/50 192/37/50
f 194/32/51 195/33/51 196/34/51
f 198/26/52 199/27/52 200/28/52
f 202/26/53 203/27/53 204/28/53
f 206/26/54 207/27/54 208/28/54
f 210/26/55 211/27/55 212/28/55
f 213/25/56 214/26/56 215/27/56
f 217/25/57 218/26/57 219/27/57
f 152/28/40 149/25/40 151/27/40
f 153/25/41 154/26/41 156/28/41
f 160/38/42 157/29/42 159/31/42
f 164/28/43 161/25/43 163/27/43
f 165/39/44 166/32/44 168/34/44
f 172/26/45 169/25/45 171/27/45
f 176/28/46 173/25/46 175/27/46
f 180/26/47 177/25/47 179/27/47
f 181/25/48 182/26/48 184/28/48
f 188/38/49 185/29/49 187/31/49
f 189/40/50 190/35/50 192/37/50
f 193/39/51 194/32/51 196/34/51
f 197/25/52 198/26/52 200/28/52
f 201/25/53 202/26/53 204/28/53
f 205/25/54 206/26/54 208/28/54
f 209/25/55 210/26/55 212/28/55
f 216/28/56 213/25/56 215/27/56
f 220/28/57 217/25/57 219/27/57
