mtllib treeC_LOD2.mtl
o Plane.001
v 10.188507 13.322477 -9.809801
v 9.809813 13.322474 10.188515
v -10.188507 13.322489 9.809820
v -9.809813 13.322493 -10.188499
v 0.000006 30.292791 15.152614
v -0.000001 30.292807 -15.152586
v -0.000006 -0.012391 -15.152601
v 0.000001 -0.012408 15.152598
v 12.742541 25.373543 0.000011
v -12.742537 25.373547 0.000013
v -12.742541 -0.111535 0.000001
v 12.742537 -0.111539 -0.000001
vt 0.000100 0.000100
vt 0.999900 0.000100
vt 0.999900 0.999900
vt 0.000100 0.999900
vn 0.000000 -0.000000 1.000000
vn -0.000000 -1.000000 -0.000000
vn -1.000000 0.000000 0.000000
usemtl Front
s 1
f 9/1/1 10/2/1 11/3/1 12/4/1
usemtl Top
f 1/1/2 2/2/2 3/3/2 4/4/2
usemtl Right
f 5/1/3 6/2/3 7/3/3 8/4/3
