mtllib treeA_LOD2.mtl
o Plane.001
v 3.924862 10.268112 3.924862
v -3.924862 10.268112 3.924863
v 3.924862 10.268113 -3.924863
v -3.924863 10.268114 -3.924862
v 0.000005 23.561205 11.719850
v -0.000001 23.561207 -11.719849
v 0.000001 0.121507 11.719849
v -0.000005 0.121508 -11.719850
v 11.719851 23.337112 -0.000001
v -11.719847 23.337116 0.000001
v 11.719847 -0.102587 -0.000001
v -11.719851 -0.102583 0.000001
vt 0.000100 0.000100
vt 0.999900 0.000100
vt 0.999900 0.999900
vt 0.000100 0.999900
vn -1.000000 0.000000 0.000000
vn -0.000000 -1.000000 -0.000000
vn 0.000000 0.000000 1.000000
usemtl Right
s off
f 5/1/1 6/2/1 8/3/1 7/4/1
usemtl Top
f 1/1/2 2/2/2 4/3/2 3/4/2
usemtl Front
f 9/1/3 10/2/3 12/3/3 11/4/3
